<svg width="1600" height="900" viewBox="0 0 1600 900" fill="none" xmlns="http://www.w3.org/2000/svg">
  <defs>
    <linearGradient id="bg" x1="92" y1="70" x2="1504" y2="826" gradientUnits="userSpaceOnUse">
      <stop stop-color="#0D1320"/>
      <stop offset="1" stop-color="#1C2940"/>
    </linearGradient>
    <linearGradient id="panel" x1="168" y1="166" x2="1430" y2="728" gradientUnits="userSpaceOnUse">
      <stop stop-color="#131A27"/>
      <stop offset="1" stop-color="#0E141F"/>
    </linearGradient>
    <linearGradient id="highlight" x1="1200" y1="214" x2="1380" y2="598" gradientUnits="userSpaceOnUse">
      <stop stop-color="#1E5BD1"/>
      <stop offset="1" stop-color="#6EA4FF"/>
    </linearGradient>
  </defs>

  <rect width="1600" height="900" rx="42" fill="url(#bg)"/>
  <circle cx="1328" cy="164" r="148" fill="#2B4A88" opacity="0.28"/>
  <circle cx="254" cy="760" r="206" fill="#22406E" opacity="0.22"/>

  <rect x="104" y="92" width="1392" height="716" rx="36" fill="url(#panel)" stroke="#263247" stroke-width="4"/>
  <rect x="104" y="92" width="1392" height="68" rx="36" fill="#111827"/>
  <circle cx="154" cy="126" r="8" fill="#FF8D7A"/>
  <circle cx="184" cy="126" r="8" fill="#FFC66E"/>
  <circle cx="214" cy="126" r="8" fill="#68C88D"/>
  <text x="264" y="132" fill="#D9E3F6" font-size="18" font-family="Arial, Helvetica, sans-serif" font-weight="700">Actual Reality / Sprint Queue</text>
  <rect x="1120" y="108" width="316" height="36" rx="18" fill="#1A2433"/>
  <text x="1152" y="131" fill="#93A3BF" font-size="16" font-family="Arial, Helvetica, sans-serif" font-weight="700">Supervisor-assigned work</text>

  <rect x="144" y="188" width="262" height="560" rx="28" fill="#101726"/>
  <text x="182" y="232" fill="#70819E" font-size="14" font-family="Arial, Helvetica, sans-serif" font-weight="700" letter-spacing="2">WORKSPACE</text>
  <rect x="168" y="258" width="214" height="48" rx="18" fill="#172132"/>
  <text x="275" y="289" fill="#E4ECFA" font-size="18" font-family="Arial, Helvetica, sans-serif" font-weight="700" text-anchor="middle">Inbox</text>
  <rect x="168" y="322" width="214" height="48" rx="18" fill="#172132"/>
  <text x="275" y="353" fill="#E4ECFA" font-size="18" font-family="Arial, Helvetica, sans-serif" font-weight="700" text-anchor="middle">Assigned</text>
  <rect x="168" y="386" width="214" height="108" rx="22" fill="#1B2A42" stroke="#2D68D7" stroke-width="2"/>
  <text x="194" y="422" fill="#9AB8F6" font-size="14" font-family="Arial, Helvetica, sans-serif" font-weight="700" letter-spacing="2">CLIENT PROJECT</text>
  <text x="275" y="456" fill="#FFFFFF" font-size="18" font-family="Arial, Helvetica, sans-serif" font-weight="700" text-anchor="middle">SSOE Estimate Maker</text>
  <text x="275" y="481" fill="#C9D9F7" font-size="13" font-family="Arial, Helvetica, sans-serif" font-weight="700" text-anchor="middle">Frontend + backend</text>
  <rect x="168" y="514" width="214" height="48" rx="18" fill="#172132"/>
  <text x="275" y="545" fill="#E4ECFA" font-size="18" font-family="Arial, Helvetica, sans-serif" font-weight="700" text-anchor="middle">Completed</text>
  <rect x="168" y="578" width="214" height="48" rx="18" fill="#172132"/>
  <text x="275" y="609" fill="#E4ECFA" font-size="18" font-family="Arial, Helvetica, sans-serif" font-weight="700" text-anchor="middle">Backlog</text>

  <rect x="438" y="188" width="626" height="560" rx="28" fill="#0F1724"/>
  <text x="478" y="232" fill="#E7EEFB" font-size="28" font-family="Arial, Helvetica, sans-serif" font-weight="700">Assigned work</text>
  <text x="478" y="262" fill="#7E90AD" font-size="16" font-family="Arial, Helvetica, sans-serif" font-weight="700">Supervisor queue · sprint 12</text>

  <rect x="470" y="290" width="578" height="78" rx="22" fill="#151F2F"/>
  <circle cx="504" cy="329" r="7" fill="#4C83F2"/>
  <text x="524" y="321" fill="#90A4C3" font-size="15" font-family="Arial, Helvetica, sans-serif" font-weight="700">ART-142</text>
  <text x="524" y="346" fill="#F3F7FF" font-size="22" font-family="Arial, Helvetica, sans-serif" font-weight="700">Build estimate stepper UI</text>
  <rect x="846" y="309" width="92" height="28" rx="14" fill="#E7F0FF"/>
  <text x="892" y="327" fill="#2D68D7" font-size="14" font-family="Arial, Helvetica, sans-serif" font-weight="700" text-anchor="middle">Frontend</text>
  <rect x="948" y="309" width="92" height="28" rx="14" fill="#EAF7EF"/>
  <text x="994" y="327" fill="#2E8D58" font-size="14" font-family="Arial, Helvetica, sans-serif" font-weight="700" text-anchor="middle">In Review</text>

  <rect x="470" y="384" width="578" height="78" rx="22" fill="#151F2F"/>
  <circle cx="504" cy="423" r="7" fill="#FFB14A"/>
  <text x="524" y="415" fill="#90A4C3" font-size="15" font-family="Arial, Helvetica, sans-serif" font-weight="700">ART-151</text>
  <text x="524" y="440" fill="#F3F7FF" font-size="21" font-family="Arial, Helvetica, sans-serif" font-weight="700">Connect validation to API</text>
  <rect x="846" y="403" width="92" height="28" rx="14" fill="#FFF1E0"/>
  <text x="892" y="421" fill="#B86117" font-size="14" font-family="Arial, Helvetica, sans-serif" font-weight="700" text-anchor="middle">Backend</text>
  <rect x="948" y="403" width="92" height="28" rx="14" fill="#E8F7EC"/>
  <text x="994" y="421" fill="#2E8D58" font-size="13" font-family="Arial, Helvetica, sans-serif" font-weight="700" text-anchor="middle">In Progress</text>

  <rect x="470" y="478" width="578" height="78" rx="22" fill="#151F2F"/>
  <circle cx="504" cy="517" r="7" fill="#67D58C"/>
  <text x="524" y="509" fill="#90A4C3" font-size="15" font-family="Arial, Helvetica, sans-serif" font-weight="700">ART-163</text>
  <text x="524" y="534" fill="#F3F7FF" font-size="21" font-family="Arial, Helvetica, sans-serif" font-weight="700">Responsive table polish</text>
  <rect x="846" y="497" width="92" height="28" rx="14" fill="#E7F0FF"/>
  <text x="892" y="515" fill="#2D68D7" font-size="14" font-family="Arial, Helvetica, sans-serif" font-weight="700" text-anchor="middle">Frontend</text>
  <rect x="948" y="497" width="92" height="28" rx="14" fill="#EAF7EF"/>
  <text x="994" y="515" fill="#2E8D58" font-size="14" font-family="Arial, Helvetica, sans-serif" font-weight="700" text-anchor="middle">Done</text>

  <rect x="470" y="572" width="578" height="78" rx="22" fill="#151F2F"/>
  <circle cx="504" cy="611" r="7" fill="#8BA3C7"/>
  <text x="524" y="603" fill="#90A4C3" font-size="15" font-family="Arial, Helvetica, sans-serif" font-weight="700">ART-171</text>
  <text x="524" y="628" fill="#F3F7FF" font-size="20" font-family="Arial, Helvetica, sans-serif" font-weight="700">Monorepo sync + CI checks</text>
  <rect x="846" y="591" width="92" height="28" rx="14" fill="#EEF1F7"/>
  <text x="892" y="609" fill="#5E6D84" font-size="14" font-family="Arial, Helvetica, sans-serif" font-weight="700" text-anchor="middle">Platform</text>
  <rect x="948" y="591" width="92" height="28" rx="14" fill="#EEF1F7"/>
  <text x="994" y="609" fill="#5E6D84" font-size="14" font-family="Arial, Helvetica, sans-serif" font-weight="700" text-anchor="middle">Todo</text>

  <rect x="1094" y="188" width="362" height="560" rx="28" fill="#111827"/>
  <text x="1134" y="232" fill="#8EA4C8" font-size="14" font-family="Arial, Helvetica, sans-serif" font-weight="700" letter-spacing="2">TICKET DETAIL</text>
  <rect x="1134" y="256" width="282" height="148" rx="24" fill="#162133"/>
  <text x="1164" y="298" fill="#9CB8F5" font-size="16" font-family="Arial, Helvetica, sans-serif" font-weight="700">ART-151</text>
  <text x="1164" y="330" fill="#FFFFFF" font-size="21" font-family="Arial, Helvetica, sans-serif" font-weight="700">
    <tspan x="1164" dy="0">SSOE estimate</tspan>
    <tspan x="1164" dy="24">workflow</tspan>
  </text>
  <text x="1164" y="384" fill="#CAD8F2" font-size="15" font-family="Arial, Helvetica, sans-serif" font-weight="700">
    <tspan x="1164" dy="0">Frontend + backend</tspan>
    <tspan x="1164" dy="22">follow-through</tspan>
  </text>

  <rect x="1134" y="424" width="282" height="168" rx="24" fill="#0F1724"/>
  <text x="1164" y="462" fill="#E7EEFB" font-size="18" font-family="Arial, Helvetica, sans-serif" font-weight="700">Checklist</text>
  <circle cx="1172" cy="494" r="7" fill="#68C88D"/>
  <text x="1190" y="500" fill="#DCE6F8" font-size="17" font-family="Arial, Helvetica, sans-serif" font-weight="700">Implement issue from supervisor</text>
  <circle cx="1172" cy="534" r="7" fill="#68C88D"/>
  <text x="1190" y="540" fill="#DCE6F8" font-size="17" font-family="Arial, Helvetica, sans-serif" font-weight="700">Ship UI and API updates</text>
  <circle cx="1172" cy="574" r="7" fill="#4C83F2"/>
  <text x="1190" y="580" fill="#DCE6F8" font-size="17" font-family="Arial, Helvetica, sans-serif" font-weight="700">Review with team before merge</text>

  <rect x="1134" y="616" width="282" height="116" rx="24" fill="url(#highlight)"/>
  <text x="1164" y="656" fill="#D9E6FF" font-size="15" font-family="Arial, Helvetica, sans-serif" font-weight="700" letter-spacing="2">WORK AREAS</text>
  <rect x="1164" y="674" width="112" height="28" rx="14" fill="#F0F5FF"/>
  <text x="1220" y="692" fill="#2D68D7" font-size="14" font-family="Arial, Helvetica, sans-serif" font-weight="700" text-anchor="middle">Frontend</text>
  <rect x="1290" y="674" width="104" height="28" rx="14" fill="#FFF3E7"/>
  <text x="1342" y="692" fill="#B86117" font-size="14" font-family="Arial, Helvetica, sans-serif" font-weight="700" text-anchor="middle">Backend</text>
  <rect x="1164" y="710" width="230" height="12" rx="6" fill="#BBD1FF"/>
</svg>
