<svg width="1600" height="900" viewBox="0 0 1600 900" fill="none" xmlns="http://www.w3.org/2000/svg">
  <defs>
    <linearGradient id="bg" x1="160" y1="96" x2="1440" y2="804" gradientUnits="userSpaceOnUse">
      <stop stop-color="#F8F1E7"/>
      <stop offset="1" stop-color="#E8EEF7"/>
    </linearGradient>
    <linearGradient id="accent" x1="420" y1="220" x2="1260" y2="690" gradientUnits="userSpaceOnUse">
      <stop stop-color="#2D68D7"/>
      <stop offset="1" stop-color="#78A5FF"/>
    </linearGradient>
  </defs>
  <rect width="1600" height="900" rx="42" fill="url(#bg)"/>
  <circle cx="1340" cy="170" r="120" fill="#D9E7FF" opacity="0.75"/>
  <circle cx="240" cy="760" r="180" fill="#F1DDD0" opacity="0.6"/>
  <rect x="128" y="110" width="1344" height="680" rx="34" fill="#FDFCFB" stroke="#D8D3CC" stroke-width="4"/>
  <rect x="128" y="110" width="1344" height="64" rx="34" fill="#F4EFE9"/>
  <circle cx="178" cy="142" r="8" fill="#FF8D7A"/>
  <circle cx="208" cy="142" r="8" fill="#FFC66E"/>
  <circle cx="238" cy="142" r="8" fill="#68C88D"/>
  <rect x="258" y="128" width="248" height="28" rx="14" fill="#FFFFFF"/>
  <text x="382" y="147" fill="#60646D" font-size="16" font-family="Arial, Helvetica, sans-serif" font-weight="700" text-anchor="middle">LearnEase Workspace</text>

  <rect x="180" y="210" width="392" height="480" rx="30" fill="#F7F2ED" stroke="#E3D9CE" stroke-width="3"/>
  <text x="220" y="254" fill="#6B6D72" font-size="18" font-family="Arial, Helvetica, sans-serif" font-weight="700" letter-spacing="2">UPLOAD MATERIALS</text>
  <rect x="220" y="286" width="312" height="214" rx="26" fill="#FFFDFC" stroke="#C4D4F7" stroke-width="4" stroke-dasharray="12 12"/>
  <path d="M376 392L404 360L432 392" stroke="#2D68D7" stroke-width="10" stroke-linecap="round" stroke-linejoin="round"/>
  <path d="M404 362V432" stroke="#2D68D7" stroke-width="10" stroke-linecap="round"/>
  <rect x="246" y="450" width="128" height="32" rx="16" fill="#E7EEFF"/>
  <text x="310" y="471" fill="#2D68D7" font-size="17" font-family="Arial, Helvetica, sans-serif" font-weight="700" text-anchor="middle">lecture.pdf</text>
  <rect x="384" y="450" width="132" height="32" rx="16" fill="#FCE8D7"/>
  <text x="450" y="471" fill="#B86117" font-size="17" font-family="Arial, Helvetica, sans-serif" font-weight="700" text-anchor="middle">notes.docx</text>
  <rect x="220" y="532" width="312" height="118" rx="24" fill="#FFFFFF"/>
  <text x="376" y="571" fill="#1B1C1C" font-size="22" font-family="Arial, Helvetica, sans-serif" font-weight="700" text-anchor="middle">Accessibility-first intake</text>
  <rect x="248" y="592" width="220" height="14" rx="7" fill="#E5E1DB"/>
  <rect x="248" y="618" width="180" height="14" rx="7" fill="#E5E1DB"/>

  <rect x="620" y="210" width="792" height="480" rx="30" fill="#FFFFFF" stroke="#D7E2F5" stroke-width="3"/>
  <rect x="652" y="248" width="308" height="384" rx="26" fill="#0F172A"/>
  <rect x="684" y="286" width="196" height="24" rx="12" fill="#28427A"/>
  <rect x="684" y="330" width="244" height="18" rx="9" fill="#D6E4FF"/>
  <rect x="684" y="364" width="222" height="18" rx="9" fill="#D6E4FF" opacity="0.9"/>
  <rect x="684" y="398" width="256" height="18" rx="9" fill="#D6E4FF" opacity="0.85"/>
  <rect x="684" y="446" width="112" height="34" rx="17" fill="#2D68D7"/>
  <text x="740" y="468" fill="#FFFFFF" font-size="18" font-family="Arial, Helvetica, sans-serif" font-weight="700" text-anchor="middle">Summary</text>
  <rect x="808" y="446" width="132" height="34" rx="17" fill="#263248"/>
  <text x="874" y="468" fill="#BFD3FF" font-size="18" font-family="Arial, Helvetica, sans-serif" font-weight="700" text-anchor="middle">Citations</text>
  <rect x="674" y="516" width="264" height="76" rx="20" fill="url(#accent)" opacity="0.9"/>
  <text x="806" y="548" fill="#FFFFFF" font-size="22" font-family="Arial, Helvetica, sans-serif" font-weight="700" text-anchor="middle">
    <tspan x="806" dy="0">Study guide</tspan>
    <tspan x="806" dy="24">generated</tspan>
  </text>

  <rect x="996" y="248" width="384" height="184" rx="26" fill="#F6F9FF"/>
  <text x="1030" y="292" fill="#1B1C1C" font-size="28" font-family="Arial, Helvetica, sans-serif" font-weight="700">Grounded answer blocks</text>
  <rect x="1030" y="320" width="152" height="30" rx="15" fill="#E7EEFF"/>
  <text x="1062" y="340" fill="#2D68D7" font-size="16" font-family="Arial, Helvetica, sans-serif" font-weight="700">Quote-linked</text>
  <rect x="1196" y="320" width="124" height="30" rx="15" fill="#EAF7EF"/>
  <text x="1222" y="340" fill="#2E8D58" font-size="16" font-family="Arial, Helvetica, sans-serif" font-weight="700">Traceable</text>
  <rect x="1030" y="372" width="300" height="14" rx="7" fill="#D6DDEB"/>
  <rect x="1030" y="398" width="272" height="14" rx="7" fill="#D6DDEB"/>

  <rect x="996" y="462" width="384" height="170" rx="26" fill="#FDF4EA"/>
  <text x="1030" y="506" fill="#1B1C1C" font-size="28" font-family="Arial, Helvetica, sans-serif" font-weight="700">Quiz + revision panel</text>
  <rect x="1030" y="536" width="152" height="60" rx="20" fill="#FFFFFF"/>
  <rect x="1200" y="536" width="152" height="60" rx="20" fill="#FFFFFF"/>
  <text x="1060" y="572" fill="#B86117" font-size="18" font-family="Arial, Helvetica, sans-serif" font-weight="700">Key idea</text>
  <text x="1230" y="572" fill="#2D68D7" font-size="18" font-family="Arial, Helvetica, sans-serif" font-weight="700">Quiz card</text>
</svg>
